<svg xmlns="http://www.w3.org/2000/svg" height="20" viewBox="0 -960 960 960" width="20"><path d="M289.5-295.5q-76.875 0-130.688-53.735Q105-402.971 105-479.735q0-76.765 53.812-130.765 53.813-54 130.688-54h381q76.875 0 130.688 53.735Q855-557.029 855-480.265q0 76.765-53.812 130.765-53.813 54-130.688 54h-381Zm.15-17.5h380.876Q740.5-313 789-361.562t48.5-118.5q0-69.938-48.588-118.438T670.35-647H289.474Q219.5-647 171-598.438t-48.5 118.5q0 69.938 48.588 118.438T289.65-313Zm-.268-76q37.868 0 64.493-26.507 26.625-26.508 26.625-64.375 0-37.868-26.507-64.493Q327.485-571 289.618-571q-37.868 0-64.493 26.507-26.625 26.508-26.625 64.375 0 37.868 26.507 64.493Q251.515-389 289.382-389ZM480-480Z"/></svg>