<svg xmlns="http://www.w3.org/2000/svg" height="48" viewBox="0 -960 960 960" width="48"><path d="M226-172q-21.75 0-37.875-16.125T172-226v-508q0-21.75 16.125-37.875T226-788h205q-13-27.5 2.945-53.75 15.946-26.25 46-26.25Q511-868 527-841.75t2 53.75h205q21.75 0 37.875 16.125T788-734v508q0 21.75-16.125 37.875T734-172H226Zm0-22h508q12 0 22-10t10-22v-508q0-12-10-22t-22-10H226q-12 0-22 10t-10 22v508q0 12 10 22t22 10Zm80-124h226v-22H306v22Zm0-151h348v-22H306v22Zm0-151h348v-22H306v22Zm173.791-162q12.79 0 22.5-9Q512-800 512-813.5t-9.709-22.5q-9.71-9-22.5-9Q467-845 458-836t-9 22.5q0 13.5 9 22.5t21.791 9ZM194-194v-572 572Z"/></svg>