<svg xmlns="http://www.w3.org/2000/svg" height="20" viewBox="0 -960 960 960" width="20"><path d="M411.5-339.5h-118q-58.712 0-99.606-40.953Q153-421.406 153-480.203t40.894-99.547q40.894-40.75 99.606-40.75h118v17.5H293.31q-50.81 0-86.81 35.882-36 35.883-36 87Q170.5-429 206.417-393q35.916 36 87.083 36h118v17.5Zm-47.5-132V-489h232v17.5H364Zm184.5 132V-357h118.19q50.81 0 86.81-35.882 36-35.883 36-87Q789.5-531 753.583-567q-35.916-36-87.083-36h-118v-17.5h118q58.713 0 99.606 40.953Q807-538.594 807-479.797t-40.894 99.547Q725.213-339.5 666.5-339.5h-118Z"/></svg>