<svg xmlns="http://www.w3.org/2000/svg" height="20" viewBox="0 -960 960 960" width="20"><path d="M149.5-341.5V-619H811v277.5H149.5ZM167-359h626.5v-242.5H167V-359Zm81.5-112.5h209V-489h-209v17.5Zm343.215 16q10.066 0 17.426-6.965 7.359-6.965 7.359-17.5t-7.252-17.785q-7.253-7.25-17.213-7.25-10.535 0-17.785 7.215t-7.25 17.75q0 10.535 7.324 17.535 7.325 7 17.391 7Zm116.25 0q10.535 0 17.785-6.965t7.25-17.5q0-10.535-7.215-17.785t-17.75-7.25q-10.535 0-17.535 7.215t-7 17.75q0 10.535 6.965 17.535t17.5 7ZM167-359v-242.5V-359Z"/></svg>